<svg width="351" height="24" viewBox="0 0 351 24" fill="none" xmlns="http://www.w3.org/2000/svg">
<path d="M28 6L30.2571 10.8934L35.6085 11.5279L31.6521 15.1866L32.7023 20.4721L28 17.84L23.2977 20.4721L24.3479 15.1866L20.3915 11.5279L25.7429 10.8934L28 6Z" fill="#08786C"/>
<path d="M68 6L70.2571 10.8934L75.6085 11.5279L71.6521 15.1866L72.7023 20.4721L68 17.84L63.2977 20.4721L64.3479 15.1866L60.3915 11.5279L65.7429 10.8934L68 6Z" fill="#08786C"/>
<path d="M48 6L50.2571 10.8934L55.6085 11.5279L51.6521 15.1866L52.7023 20.4721L48 17.84L43.2977 20.4721L44.3479 15.1866L40.3915 11.5279L45.7429 10.8934L48 6Z" fill="#08786C"/>
<path d="M88 6L90.2571 10.8934L95.6085 11.5279L91.6521 15.1866L92.7023 20.4721L88 17.84L83.2977 20.4721L84.3479 15.1866L80.3915 11.5279L85.7429 10.8934L88 6Z" fill="#08786C"/>
<path d="M8 6L10.2571 10.8934L15.6085 11.5279L11.6521 15.1866L12.7023 20.4721L8 17.84L3.29772 20.4721L4.34794 15.1866L0.391548 11.5279L5.7429 10.8934L8 6Z" fill="#08786C"/>
</svg>
